<svg height='300px' width='300px'  fill="#000000" xmlns="http://www.w3.org/2000/svg" data-name="Layer 1" viewBox="0 0 80 80" x="0px" y="0px"><title>medicine-health-healthcare-pulse</title><path d="M75,49H43.764a3.007,3.007,0,0,0-2.895,2.21L39.728,55.4l-1.608-4.423A3.01,3.01,0,0,0,35.3,49H33.769L29.985,17.76a2,2,0,0,0-3.971,0L22.231,49H5a2,2,0,0,0,0,4H23.117a3.006,3.006,0,0,0,2.978-2.636L28,34.634l1.906,15.738A3,3,0,0,0,32.883,53H34.6l3.521,9.684A2,2,0,0,0,40,64h.083a2,2,0,0,0,1.847-1.472L44.527,53H75a2,2,0,0,0,0-4Z"></path><path d="M32.288,71.6a10.438,10.438,0,0,0,15.425,0L60.364,57.723a2,2,0,1,0-2.956-2.7L44.757,68.9a6.438,6.438,0,0,1-9.514,0L22.592,55.027a2,2,0,0,0-2.956,2.7Z"></path><path d="M10.517,46.973a2,2,0,1,0,2.956-2.694l-.562-.615A20.339,20.339,0,0,1,7.743,23.777a20.067,20.067,0,0,1,13.591-13.9,20.36,20.36,0,0,1,16.51,2.057,4.15,4.15,0,0,0,4.312,0A20.249,20.249,0,0,1,54.361,9.068,20.333,20.333,0,0,1,67.03,43.727l-.5.552a2,2,0,1,0,2.956,2.694l.443-.489A24.33,24.33,0,0,0,40.083,8.509a.143.143,0,0,1-.167,0A24.644,24.644,0,0,0,20.2,6.038,24.33,24.33,0,0,0,10.014,46.421Z"></path></svg>